<svg xmlns="http://www.w3.org/2000/svg" width="18" height="18.465" viewBox="0 0 18 18.465"><path d="M20.625,13.8l-1.039-2.223c-.214-.517-.214-.517-.93-.517-.465,0-.517,0-.81.272l-2.52,2.559c-.292.312-.326.347-.326.983,0,.47.131.541.653.849l2.16,1.26v3.332h1.125V16.094s-1.02-.628-1.7-1.109l1.721-1.907c.656,1.054.96,1.907,1.335,1.907h2.58V13.8Z" transform="translate(-9.375 -6.913)" fill="#fff"/><path d="M30.986,31.219a3.234,3.234,0,1,1,3.233-3.233A3.234,3.234,0,0,1,30.986,31.219Zm0-5.344a2.109,2.109,0,1,0,2.108,2.111A2.111,2.111,0,0,0,30.986,25.875Z" transform="translate(-17.344 -15.004)" fill="#fff"/><path d="M6.236,31.219a3.234,3.234,0,1,1,3.233-3.233A3.234,3.234,0,0,1,6.236,31.219Zm0-5.344a2.109,2.109,0,1,0,2.108,2.111A2.111,2.111,0,0,0,6.236,25.875Z" transform="translate(-1.875 -15.004)" fill="#fff"/><path d="M28.131,8.25a1.12,1.12,0,0,0,1.125-1.129A1.108,1.108,0,0,0,28.139,6a1.125,1.125,0,0,0-.007,2.25Z" transform="translate(-16.881 -3.75)" fill="#fff"/><path d="M0,0H18V18.465H0Z" fill="none"/></svg>