<svg xmlns="http://www.w3.org/2000/svg" width="16" height="16" viewBox="0 0 15.006 15.006">
    <path
        d="M14.629,18H5.876v.625a.627.627,0,0,1-.625.625H4.625A.627.627,0,0,1,4,18.629V12.377l1.551-3.62A1.251,1.251,0,0,1,6.7,8h7.1a1.251,1.251,0,0,1,1.15.757l1.551,3.62v6.253a.627.627,0,0,1-.625.625h-.625a.627.627,0,0,1-.625-.625Zm.625-4.377h-10v3.126h10ZM5.36,12.377h9.785L13.8,9.251H6.7Zm1.454,3.752a.938.938,0,1,1,.938-.938A.937.937,0,0,1,6.814,16.128Zm6.878,0a.938.938,0,1,1,.938-.938A.937.937,0,0,1,13.691,16.128Z"
        transform="translate(-2.749 -6.124)" fill="#fff" />
    <path d="M0,0H15.006V15.006H0Z" fill="none" />
</svg>